<svg id="svg" version="1.1" xmlns="http://www.w3.org/2000/svg" xmlns:xlink="http://www.w3.org/1999/xlink" width="430" height="484" viewBox="0, 0, 400,377.35849056603774"><g id="svgg"><path id="path0" d="M366.421 68.191 C 365.017 69.976,366.253 72.453,368.549 72.453 C 371.062 72.453,372.243 69.677,370.447 67.990 C 369.200 66.818,367.432 66.906,366.421 68.191 M193.420 82.543 C 192.811 82.632,191.066 83.200,189.542 83.805 C 186.436 85.039,184.812 85.155,182.110 84.336 C 176.576 82.657,172.676 84.091,170.299 88.680 C 169.299 90.609,168.999 90.865,166.027 92.331 C 159.020 95.786,156.657 101.805,160.770 105.718 C 163.837 108.636,169.555 108.416,170.833 105.331 C 172.469 101.383,177.435 95.656,180.643 94.019 C 183.988 92.313,187.925 92.468,187.925 94.305 C 187.925 96.813,190.985 98.085,192.885 96.366 C 193.327 95.965,193.882 95.842,194.521 96.002 C 195.975 96.367,196.868 95.675,198.107 93.221 C 198.913 91.624,199.470 90.964,200.086 90.876 C 201.244 90.712,201.364 89.487,200.399 87.685 C 199.972 86.889,199.623 86.043,199.623 85.804 C 199.623 85.213,196.732 82.642,196.068 82.642 C 195.774 82.642,195.307 82.583,195.031 82.511 C 194.754 82.440,194.030 82.454,193.420 82.543 M177.358 121.124 C 172.689 121.693,168.822 122.182,168.766 122.211 C 168.710 122.240,169.909 123.750,171.431 125.566 C 187.513 144.764,187.605 144.959,188.148 161.230 C 188.383 168.294,188.386 168.309,189.286 168.535 C 189.840 168.674,190.189 169.037,190.189 169.475 C 190.189 169.990,190.459 170.189,191.158 170.189 C 191.966 170.189,192.085 170.059,191.878 169.407 C 191.695 168.829,191.820 168.577,192.361 168.435 C 193.033 168.259,193.111 167.746,193.338 161.986 C 194.010 144.954,193.740 142.306,190.415 133.342 C 189.253 130.209,188.302 127.538,188.302 127.407 C 188.302 126.527,196.015 128.399,198.264 129.826 C 201.855 132.103,202.092 133.712,199.737 139.811 C 194.463 153.463,194.396 153.664,195.016 153.872 C 195.408 154.004,195.410 154.148,195.030 154.606 C 194.641 155.074,194.688 155.272,195.295 155.716 C 195.955 156.199,196.069 156.175,196.376 155.486 C 196.565 155.063,196.932 154.717,197.192 154.717 C 198.604 154.717,205.586 143.555,208.066 137.332 C 213.578 123.503,203.127 117.986,177.358 121.124 M90.606 128.605 C 90.062 129.621,90.890 130.678,92.097 130.508 C 93.518 130.307,93.441 128.162,92.007 127.996 C 91.313 127.916,90.872 128.108,90.606 128.605 M97.126 128.469 C 96.738 129.479,97.165 130.376,98.096 130.508 C 99.282 130.676,100.125 129.618,99.595 128.627 C 99.149 127.794,97.427 127.684,97.126 128.469 M238.113 188.814 L 185.094 193.774 185.536 199.057 L 185.978 204.340 185.013 205.283 C 184.313 205.967,184.110 206.045,184.276 205.566 C 184.658 204.463,184.323 204.807,182.837 207.046 C 180.972 209.854,182.021 211.114,184.959 209.595 C 186.457 208.820,186.215 207.630,187.350 221.314 C 187.901 227.952,188.393 233.425,188.444 233.476 C 188.496 233.527,189.265 232.828,190.154 231.922 L 191.771 230.274 192.868 221.458 C 194.185 210.861,194.196 210.808,194.957 211.099 C 196.649 211.749,197.358 211.770,197.358 211.173 C 197.358 210.839,197.528 210.566,197.736 210.566 C 197.978 210.566,198.113 214.317,198.113 221.064 L 198.113 231.563 193.603 237.367 C 189.280 242.929,189.099 243.235,189.254 244.699 C 189.344 245.539,189.518 247.203,189.641 248.396 C 189.814 250.069,190.008 250.566,190.487 250.566 C 190.829 250.566,211.903 248.861,237.318 246.777 C 262.732 244.693,283.777 243.038,284.084 243.098 C 284.457 243.171,284.983 244.594,285.669 247.383 C 288.357 258.319,289.816 258.967,297.929 252.827 C 299.324 251.771,300.527 250.968,300.602 251.043 C 300.677 251.117,301.276 255.329,301.934 260.401 C 302.591 265.473,303.249 269.759,303.396 269.926 C 303.680 270.248,324.534 267.920,324.520 267.567 C 324.515 267.452,322.589 260.576,320.239 252.287 L 315.967 237.216 312.887 235.023 C 309.542 232.642,309.434 232.589,309.434 233.330 C 309.434 235.362,306.204 236.038,304.751 234.311 C 303.534 232.864,303.528 232.529,304.717 232.230 C 306.062 231.893,306.070 230.189,304.726 230.189 C 303.883 230.189,303.815 230.075,304.027 229.018 C 304.281 227.744,303.796 227.186,302.424 227.176 C 300.693 227.163,299.539 224.977,300.522 223.574 C 301.280 222.491,297.595 212.833,296.420 212.824 C 295.848 212.820,295.787 212.738,296.174 212.493 C 296.604 212.221,296.585 211.715,296.060 209.386 C 295.715 207.856,294.988 201.467,294.444 195.189 L 293.455 183.774 292.294 183.814 C 291.655 183.836,267.274 186.086,238.113 188.814 M46.366 197.742 C 34.763 199.703,29.869 214.368,37.939 222.995 C 42.204 227.555,48.127 229.015,54.153 226.993 C 56.923 226.063,56.934 226.062,58.936 226.745 C 60.040 227.121,61.373 227.535,61.899 227.663 L 62.854 227.897 62.567 224.338 C 62.319 221.251,62.377 220.553,63.008 219.081 C 66.940 209.910,61.536 199.532,51.912 197.769 C 49.436 197.315,48.910 197.313,46.366 197.742 M49.990 211.415 C 49.714 216.326,49.655 216.604,48.880 216.604 C 48.440 216.604,48.302 216.166,48.302 214.774 C 48.302 213.767,48.192 211.645,48.058 210.057 L 47.814 207.170 49.022 207.170 L 50.229 207.170 49.990 211.415 M186.415 207.884 C 186.415 208.069,186.160 208.319,185.849 208.438 C 185.274 208.659,185.076 208.257,185.535 207.799 C 185.895 207.438,186.415 207.489,186.415 207.884 M49.811 218.491 C 49.811 219.044,49.560 219.245,48.868 219.245 C 48.176 219.245,47.925 219.044,47.925 218.491 C 47.925 217.937,48.176 217.736,48.868 217.736 C 49.560 217.736,49.811 217.937,49.811 218.491 M100.305 219.906 C 99.248 221.136,99.204 221.500,99.861 223.584 C 100.458 225.478,100.463 225.706,99.919 226.134 C 99.590 226.392,98.604 228.251,97.728 230.264 C 94.289 238.166,83.162 246.792,76.406 246.792 C 74.863 246.792,75.081 244.229,76.713 243.194 C 78.860 241.832,78.356 236.055,76.127 236.480 C 74.549 236.780,74.602 236.694,75.034 238.259 L 75.407 239.609 74.326 239.050 C 72.462 238.086,72.115 239.213,73.850 240.596 C 75.543 241.946,73.103 244.585,70.715 243.986 C 70.061 243.822,69.841 243.982,69.644 244.764 C 69.321 246.054,69.304 246.045,72.496 246.445 C 75.668 246.844,76.054 247.087,75.276 248.197 C 74.449 249.379,68.782 253.565,66.699 254.534 C 60.988 257.190,61.102 251.527,66.846 247.248 L 68.724 245.849 67.098 245.617 C 64.912 245.305,63.929 245.730,63.654 247.106 C 63.261 249.071,58.039 252.830,55.701 252.830 C 51.507 252.830,42.197 282.235,45.025 286.551 C 46.138 288.249,46.682 287.827,46.541 285.377 L 46.417 283.208 46.926 284.717 C 47.565 286.614,48.095 285.343,47.866 282.463 C 47.792 281.524,47.825 280.714,47.940 280.661 C 48.055 280.609,48.545 279.462,49.028 278.113 C 51.733 270.559,55.796 263.045,58.490 260.611 C 60.574 258.729,60.688 258.839,60.093 262.170 C 59.156 267.421,59.956 281.132,61.200 281.132 C 61.608 281.132,81.742 276.673,82.558 276.402 C 82.914 276.284,82.803 275.775,82.128 274.442 C 80.803 271.826,80.248 267.673,80.491 262.202 C 80.819 254.823,81.002 254.369,84.157 253.087 C 94.235 248.993,102.619 237.394,102.639 227.520 C 102.640 226.779,102.914 225.372,103.248 224.393 C 103.910 222.450,103.612 221.031,102.292 219.836 C 101.670 219.274,101.651 219.369,101.953 221.577 C 102.193 223.333,102.155 223.986,101.797 224.207 C 101.133 224.618,100.673 222.857,100.920 220.849 C 101.142 219.044,101.100 218.979,100.305 219.906 M172.149 229.104 C 168.196 230.034,166.144 233.679,166.610 238.943 C 166.925 242.495,166.926 242.493,162.476 246.883 C 156.715 252.567,155.720 257.495,159.435 261.948 C 160.004 262.630,160.359 263.718,160.542 265.344 C 161.039 269.755,162.347 271.215,166.574 272.077 C 176.936 274.191,184.748 265.017,178.704 257.834 C 176.984 255.790,176.836 254.843,177.913 252.783 C 179.642 249.477,179.046 246.628,176.238 244.769 C 174.371 243.534,174.556 243.019,176.867 243.019 L 178.594 243.019 178.358 241.005 C 178.137 239.126,178.185 238.957,179.071 238.483 C 180.424 237.759,180.595 236.521,179.673 234.112 C 178.927 232.162,178.916 231.976,179.497 231.089 C 180.773 229.141,176.686 228.037,172.149 229.104 M300.377 232.471 C 300.377 233.147,301.316 234.089,302.358 234.459 C 302.878 234.643,303.019 235.132,303.019 236.747 L 303.019 238.801 301.315 239.625 C 300.105 240.211,298.507 241.722,295.792 244.848 C 293.692 247.266,291.846 249.295,291.692 249.356 C 291.380 249.479,288.569 243.003,288.824 242.749 C 289.001 242.572,295.422 241.913,297.128 241.897 L 298.217 241.887 297.980 239.151 C 297.850 237.646,297.635 234.717,297.503 232.642 L 297.263 228.868 298.820 230.360 C 299.677 231.180,300.377 232.130,300.377 232.471 M114.023 273.104 C 113.128 273.271,113.092 273.749,113.829 275.669 C 114.045 276.232,113.970 276.257,113.235 275.864 C 111.747 275.068,110.945 275.742,112.144 276.780 C 112.701 277.262,113.379 277.730,113.649 277.820 C 114.313 278.042,113.667 279.450,112.064 281.276 C 110.544 283.008,110.741 284.044,112.857 285.445 C 115.725 287.343,116.448 290.521,114.676 293.441 C 113.625 295.172,113.762 296.726,115.097 298.248 C 120.735 304.669,115.959 313.208,106.730 313.208 L 104.432 313.208 104.686 314.797 C 104.826 315.671,104.975 316.413,105.017 316.444 C 105.060 316.476,110.231 316.597,116.509 316.713 L 127.925 316.925 127.925 316.028 C 127.925 315.535,127.242 310.931,126.407 305.798 C 124.610 294.746,124.508 295.463,127.547 297.779 C 133.050 301.973,137.877 303.563,140.690 302.109 C 142.838 300.998,147.671 293.946,147.013 292.882 C 146.910 292.715,147.580 291.837,148.503 290.931 C 149.621 289.834,150.033 289.193,149.737 289.011 C 149.403 288.804,149.415 288.590,149.787 288.142 C 150.414 287.387,149.481 287.278,148.728 288.019 C 148.341 288.399,148.295 288.271,148.489 287.358 L 148.729 286.226 147.389 287.736 C 146.099 289.189,146.048 289.210,146.014 288.302 C 145.986 287.572,145.843 287.743,145.381 289.057 C 145.052 289.991,144.590 290.925,144.353 291.132 C 144.116 291.340,143.428 292.250,142.824 293.156 C 139.599 297.987,138.019 297.910,131.887 292.624 C 125.178 286.841,121.420 284.543,117.373 283.746 C 115.283 283.335,115.094 283.216,115.089 282.309 C 115.086 281.766,114.982 280.939,114.856 280.472 C 114.696 279.875,114.793 279.623,115.181 279.623 C 116.879 279.623,117.358 277.449,116.258 274.734 C 115.532 272.945,115.397 272.846,114.023 273.104 M163.925 299.906 L 164.173 310.377 162.356 322.707 L 160.539 335.037 161.496 335.225 C 162.817 335.485,162.495 336.287,166.782 322.075 C 170.472 309.845,174.264 291.874,173.348 290.958 C 173.118 290.728,165.944 289.505,164.575 289.462 L 163.678 289.434 163.925 299.906 M175.657 291.792 C 175.766 292.259,176.517 296.737,177.325 301.742 L 178.795 310.843 177.908 321.553 C 177.421 327.444,176.940 333.035,176.840 333.978 L 176.658 335.691 177.955 335.540 C 178.902 335.429,179.302 335.171,179.439 334.581 C 183.961 315.030,185.291 305.594,185.284 293.113 L 185.283 290.943 180.370 290.943 C 175.468 290.943,175.458 290.945,175.657 291.792 M47.997 324.629 C 47.149 325.651,48.704 326.889,49.793 326.059 C 50.582 325.457,50.644 325.266,50.218 324.753 C 49.618 324.030,48.544 323.970,47.997 324.629 M75.094 335.849 C 75.094 336.436,75.346 336.604,76.226 336.604 C 77.107 336.604,77.358 336.436,77.358 335.849 C 77.358 335.262,77.107 335.094,76.226 335.094 C 75.346 335.094,75.094 335.262,75.094 335.849 M92.708 361.932 C 92.056 362.312,92.054 362.369,92.672 363.053 C 93.457 363.920,94.086 363.968,94.717 363.208 C 95.652 362.081,94.123 361.110,92.708 361.932 M119.623 373.208 C 119.623 373.795,119.874 373.962,120.755 373.962 C 121.635 373.962,121.887 373.795,121.887 373.208 C 121.887 372.621,121.635 372.453,120.755 372.453 C 119.874 372.453,119.623 372.621,119.623 373.208 " stroke="none" fill="#f9a976" fill-rule="evenodd"></path><path id="path1" d="M180.951 95.618 C 177.338 99.231,182.832 118.838,187.728 119.802 C 188.147 119.884,190.211 120.047,192.313 120.164 C 194.494 120.284,197.696 120.781,199.771 121.320 C 201.770 121.839,203.955 122.259,204.627 122.252 L 205.849 122.239 204.959 121.497 C 204.026 120.720,198.585 118.887,194.837 118.088 C 189.766 117.006,186.650 111.787,185.996 103.280 C 185.412 95.675,183.618 92.951,180.951 95.618 M190.868 100.610 L 189.848 103.480 195.018 108.455 C 207.782 120.737,210.692 123.390,212.207 124.123 C 214.062 125.021,215.472 125.138,215.472 124.393 C 215.472 123.924,192.379 97.729,191.973 97.738 C 191.926 97.739,191.428 99.031,190.868 100.610 M84.038 134.955 C 83.893 135.101,83.774 139.374,83.774 144.452 L 83.774 153.684 85.189 153.450 C 85.967 153.321,109.316 153.214,137.075 153.212 L 187.547 153.208 187.547 152.075 L 187.547 150.943 180.189 150.943 L 172.830 150.943 172.830 144.665 L 172.830 138.387 177.329 138.572 L 181.827 138.758 180.631 137.165 L 179.434 135.572 132.830 135.315 C 107.198 135.174,85.794 134.975,85.265 134.874 C 84.736 134.773,84.184 134.810,84.038 134.955 M191.848 136.450 C 191.975 136.781,192.181 137.460,192.307 137.960 C 192.528 138.842,192.641 138.868,196.230 138.868 L 199.926 138.868 200.340 137.680 C 200.568 137.026,200.755 136.347,200.755 136.170 C 200.755 135.994,198.699 135.849,196.186 135.849 C 192.162 135.849,191.645 135.921,191.848 136.450 M208.236 137.270 L 207.646 138.771 209.916 139.008 C 211.165 139.139,217.228 139.245,223.390 139.245 C 229.552 139.245,239.716 139.358,245.976 139.495 L 257.358 139.744 257.358 145.344 L 257.358 150.943 228.962 150.955 L 200.566 150.967 199.869 151.924 C 199.485 152.451,199.242 152.952,199.328 153.039 C 199.414 153.125,224.903 153.241,255.969 153.296 L 312.453 153.396 312.453 145.045 L 312.453 136.693 293.491 136.463 C 283.061 136.337,259.745 136.129,241.677 136.001 L 208.825 135.769 208.236 137.270 M108.473 137.777 C 112.891 139.003,114.609 144.840,111.619 148.467 C 107.545 153.410,99.623 150.558,99.623 144.148 C 99.623 139.579,103.892 136.505,108.473 137.777 M154.717 144.340 L 154.717 146.792 137.925 146.792 L 121.132 146.792 121.132 144.340 L 121.132 141.887 137.925 141.887 L 154.717 141.887 154.717 144.340 M193.585 152.075 C 193.585 153.462,194.227 153.554,194.726 152.240 C 195.215 150.955,195.211 150.943,194.340 150.943 C 193.753 150.943,193.585 151.195,193.585 152.075 M193.997 155.996 C 193.597 156.478,200.176 160.002,201.474 160.001 C 202.402 160.000,200.899 158.673,198.553 157.422 C 195.298 155.687,194.469 155.428,193.997 155.996 M193.396 169.999 C 193.189 170.069,192.382 170.233,191.604 170.364 C 188.835 170.827,189.779 171.844,192.700 171.545 C 198.537 170.947,200.871 169.780,196.110 169.841 C 194.825 169.857,193.604 169.928,193.396 169.999 M175.396 218.797 C 168.343 231.236,168.518 230.859,170.302 229.806 C 171.037 229.372,172.697 228.899,173.992 228.754 L 176.345 228.491 178.739 222.642 C 180.055 219.425,181.811 215.375,182.642 213.643 C 184.259 210.268,184.299 210.156,183.868 210.251 C 183.083 210.422,181.539 209.656,181.437 209.044 C 181.368 208.635,178.883 212.648,175.396 218.797 M197.490 211.113 C 197.110 211.756,196.892 211.797,195.739 211.444 C 194.182 210.966,194.513 209.720,192.992 221.793 L 191.934 230.190 186.013 236.038 C 182.757 239.255,179.817 241.887,179.480 241.887 C 179.143 241.887,178.868 242.129,178.868 242.426 C 178.868 242.795,178.222 243.045,176.811 243.222 L 174.753 243.479 176.607 244.943 C 179.351 247.112,179.815 249.809,177.938 252.675 C 177.136 253.899,177.228 255.856,178.140 256.981 C 184.930 265.353,177.804 274.133,165.888 272.075 C 164.892 271.903,164.751 272.020,164.284 273.396 C 164.002 274.226,163.610 275.245,163.412 275.660 C 162.952 276.626,161.445 288.270,161.723 288.719 C 161.837 288.905,162.343 289.057,162.847 289.057 C 163.351 289.057,165.995 289.412,168.724 289.847 C 174.325 290.739,174.324 290.739,174.334 288.019 C 174.337 287.137,174.509 286.415,174.717 286.415 C 174.925 286.415,175.094 287.254,175.094 288.280 C 175.094 289.305,175.233 290.230,175.403 290.335 C 175.763 290.558,187.507 290.735,187.713 290.521 C 187.789 290.442,187.615 288.255,187.326 285.660 C 186.986 282.609,186.822 277.346,186.860 270.755 C 186.924 259.890,186.689 257.468,185.068 252.313 C 184.499 250.503,184.265 249.176,184.468 248.917 C 184.651 248.682,187.799 244.634,191.463 239.921 L 198.125 231.352 198.025 220.865 C 197.947 212.746,197.826 210.543,197.490 211.113 M300.582 223.396 C 299.587 225.262,300.845 227.170,303.070 227.170 C 304.082 227.170,304.151 227.267,304.151 228.702 C 304.151 229.669,304.296 230.144,304.545 229.990 C 305.040 229.684,306.038 230.483,306.038 231.186 C 306.038 231.477,305.613 231.908,305.094 232.144 C 303.916 232.681,303.891 233.586,305.024 234.651 C 306.990 236.498,309.434 235.015,309.434 231.976 C 309.434 230.914,309.640 229.047,309.892 227.826 L 310.351 225.608 308.855 224.345 C 307.459 223.167,301.094 222.437,300.582 223.396 M68.770 233.224 C 67.301 233.974,65.660 235.689,65.660 236.473 C 65.660 236.649,64.795 236.792,63.737 236.792 C 61.673 236.792,61.395 237.003,59.491 240.000 L 58.653 241.321 55.081 241.535 C 48.283 241.944,44.759 246.283,47.532 250.831 C 51.279 256.976,64.151 251.439,64.151 243.682 C 64.151 241.088,64.846 240.474,66.050 242.005 C 67.909 244.369,73.444 244.485,74.298 242.178 C 74.526 241.561,74.333 241.154,73.427 240.341 C 71.992 239.051,72.474 238.035,74.158 238.802 C 75.115 239.239,75.125 239.227,74.888 237.962 C 74.659 236.743,74.710 236.666,75.908 236.425 C 78.397 235.922,78.540 235.831,78.418 234.814 C 78.182 232.844,71.629 231.764,68.770 233.224 M67.328 247.103 C 61.401 251.413,61.054 257.258,66.902 254.287 C 69.117 253.162,72.768 250.506,74.335 248.880 C 75.915 247.241,75.669 246.967,72.289 246.606 C 71.030 246.471,69.732 246.286,69.403 246.194 C 69.075 246.102,68.141 246.511,67.328 247.103 M368.859 298.679 C 368.859 316.113,368.906 323.190,368.962 314.406 C 369.019 305.621,369.019 291.357,368.962 282.708 C 368.906 274.058,368.859 281.245,368.859 298.679 M321.509 268.138 C 321.198 268.207,316.984 268.725,312.144 269.289 L 303.346 270.315 302.240 271.922 C 293.422 284.739,294.142 301.202,304.191 316.553 C 305.864 319.108,305.829 319.142,306.598 314.237 L 307.265 309.982 305.644 305.086 C 302.792 296.470,303.394 293.207,309.563 283.868 L 311.620 280.755 309.772 280.755 L 307.925 280.755 307.925 277.925 L 307.925 275.094 316.557 275.094 L 325.189 275.094 325.425 273.915 C 326.293 269.573,324.821 267.402,321.509 268.138 M107.555 270.660 C 104.276 272.335,102.790 275.573,103.432 279.638 C 103.937 282.834,103.625 283.480,99.648 287.472 C 93.687 293.455,92.530 297.579,95.610 301.866 C 96.814 303.542,97.125 304.360,97.401 306.570 C 97.935 310.846,100.024 312.687,104.798 313.086 C 114.725 313.917,120.855 305.562,115.325 298.737 C 113.472 296.451,113.360 295.751,114.498 293.575 C 116.225 290.271,115.933 288.568,113.208 286.038 C 110.528 283.550,110.391 282.778,112.264 280.705 C 113.879 278.918,113.922 278.119,112.450 277.282 C 110.738 276.307,111.189 274.644,112.925 275.536 C 113.652 275.910,113.752 275.466,113.236 274.151 C 112.984 273.511,113.174 273.309,114.489 272.822 C 116.369 272.124,116.915 270.461,115.398 270.054 C 113.288 269.490,109.233 269.803,107.555 270.660 M22.364 282.264 C 22.116 308.675,22.077 330.166,22.273 333.019 C 22.570 337.343,22.899 289.717,22.627 281.887 L 22.423 276.038 22.364 282.264 M82.979 276.392 C 82.888 276.483,78.233 277.585,72.633 278.842 C 67.034 280.098,62.097 281.209,61.662 281.311 C 60.922 281.483,60.853 281.832,60.612 286.638 C 60.034 298.148,56.430 309.106,50.019 318.841 C 47.518 322.640,47.520 321.969,50.002 324.702 L 52.046 326.952 53.055 326.023 C 60.842 318.860,68.827 305.370,71.699 294.528 C 72.139 292.868,72.581 291.263,72.682 290.963 C 73.358 288.935,76.349 299.329,76.985 305.916 C 77.727 313.609,76.043 328.478,73.755 334.441 C 73.604 334.835,74.187 334.940,76.422 334.925 L 79.282 334.906 80.004 333.292 C 85.597 320.800,87.860 300.502,85.379 285.094 C 84.534 279.845,83.451 275.920,82.979 276.392 M373.314 279.906 C 371.415 282.126,368.959 285.396,369.698 284.717 C 370.347 284.122,375.491 277.736,375.321 277.736 C 375.238 277.736,374.334 278.712,373.314 279.906 M27.659 281.415 C 24.858 284.700,22.907 287.170,23.112 287.170 C 23.213 287.170,24.764 285.387,26.560 283.208 C 28.355 281.028,29.753 279.245,29.666 279.245 C 29.580 279.245,28.676 280.222,27.659 281.415 M312.691 281.604 C 312.566 282.071,312.461 283.621,312.458 285.048 L 312.453 287.644 313.868 287.419 C 314.646 287.296,316.247 287.082,317.424 286.945 C 319.779 286.670,319.700 286.775,320.221 283.208 C 320.373 282.170,320.563 281.514,320.643 281.751 C 320.791 282.185,317.478 302.418,314.693 318.097 C 313.864 322.758,313.271 326.791,313.374 327.059 C 313.701 327.912,315.594 327.677,315.367 326.812 C 315.262 326.408,316.073 321.950,317.171 316.906 C 319.478 306.307,322.660 290.687,323.709 284.811 L 324.433 280.755 318.676 280.755 C 313.024 280.755,312.914 280.770,312.691 281.604 M385.443 293.019 C 385.443 297.377,385.498 299.109,385.565 296.866 C 385.632 294.624,385.631 291.058,385.564 288.942 C 385.497 286.826,385.442 288.660,385.443 293.019 M316.415 287.632 C 312.495 288.242,312.565 288.210,312.312 289.476 C 312.182 290.128,312.075 291.584,312.075 292.712 L 312.075 294.763 313.868 294.531 C 314.854 294.404,316.262 294.215,316.998 294.111 L 318.336 293.922 318.900 290.546 C 319.268 288.339,319.328 287.189,319.071 287.225 C 318.856 287.255,317.660 287.438,316.415 287.632 M315.136 294.973 C 311.810 295.543,312.231 295.092,311.936 298.407 L 311.691 301.154 314.242 300.907 C 315.645 300.771,316.896 300.554,317.022 300.424 C 317.265 300.175,318.213 294.658,318.031 294.555 C 317.972 294.522,316.670 294.710,315.136 294.973 M361.538 304.245 C 366.805 308.258,368.298 309.272,366.415 307.555 C 364.559 305.863,357.711 300.755,357.299 300.755 C 357.111 300.755,359.019 302.325,361.538 304.245 M313.679 301.583 L 311.698 301.944 311.698 304.467 L 311.698 306.990 313.853 306.797 C 316.241 306.583,315.996 306.941,316.767 302.547 C 317.048 300.946,317.095 300.960,313.679 301.583 M10.955 304.388 C 10.962 304.569,12.597 305.906,14.589 307.358 C 16.580 308.811,18.451 310.232,18.746 310.517 C 19.040 310.801,19.364 310.951,19.465 310.850 C 19.566 310.749,17.902 309.341,15.767 307.722 C 13.633 306.102,11.675 304.616,11.415 304.418 C 11.156 304.220,10.949 304.207,10.955 304.388 M385.451 317.547 C 385.451 323.981,385.502 326.666,385.565 323.514 C 385.628 320.362,385.628 315.098,385.565 311.816 C 385.503 308.534,385.451 311.113,385.451 317.547 M312.963 307.440 C 311.628 307.608,311.334 308.228,311.326 310.893 C 311.321 312.419,311.384 312.524,312.170 312.313 C 312.637 312.188,313.472 312.083,314.027 312.081 C 315.085 312.075,315.091 312.062,315.689 308.585 C 315.956 307.034,316.011 307.057,312.963 307.440 M307.559 312.245 C 307.550 313.057,307.660 313.246,307.964 312.942 C 308.262 312.644,308.265 312.328,307.975 311.829 C 307.620 311.218,307.569 311.269,307.559 312.245 M313.774 312.638 C 313.566 312.708,312.929 312.867,312.358 312.993 C 311.368 313.212,311.321 313.324,311.321 315.479 L 311.321 317.736 312.787 317.736 L 314.253 317.736 314.519 315.601 C 314.666 314.427,314.874 313.238,314.981 312.960 C 315.162 312.486,314.644 312.348,313.774 312.638 M307.006 315.357 C 306.865 316.354,306.659 317.480,306.548 317.858 C 306.365 318.482,306.519 318.522,308.173 318.282 C 310.486 317.946,310.388 318.129,309.515 315.781 C 308.475 312.986,307.367 312.798,307.006 315.357 M127.962 316.164 L 127.925 317.045 116.834 316.771 L 105.742 316.498 105.513 321.362 C 104.882 334.770,101.858 344.571,94.964 355.554 C 91.969 360.325,92.027 359.447,94.532 362.097 L 96.612 364.296 98.147 362.808 C 105.120 356.050,113.823 341.992,114.933 335.695 C 115.040 335.088,115.215 334.450,115.322 334.276 C 115.430 334.102,115.912 332.400,116.394 330.493 L 117.270 327.027 118.017 328.514 C 122.589 337.613,122.747 360.606,118.314 371.741 C 118.103 372.271,118.443 372.344,120.941 372.307 L 123.810 372.264 124.565 370.578 C 130.542 357.226,132.623 338.857,129.953 323.025 C 129.289 319.089,128.024 314.727,127.962 316.164 M311.604 318.373 C 311.234 318.470,310.939 318.908,310.934 319.367 C 310.926 320.008,310.344 320.468,308.292 321.458 C 306.404 322.368,305.660 322.930,305.660 323.444 C 305.660 324.089,305.922 324.028,308.302 322.830 L 310.943 321.500 310.943 322.637 C 310.943 325.202,313.059 324.184,313.546 321.384 C 314.158 317.874,314.065 317.730,311.604 318.373 M306.509 319.340 C 306.750 320.062,307.816 320.119,308.756 319.460 C 309.581 318.883,309.561 318.868,307.977 318.868 C 306.845 318.868,306.400 319.011,306.509 319.340 M303.964 324.149 C 303.339 324.839,303.335 324.906,303.916 324.906 C 304.266 324.906,304.653 324.644,304.775 324.323 C 305.127 323.408,304.715 323.319,303.964 324.149 M311.080 324.717 C 310.924 325.123,310.288 325.283,308.828 325.283 C 306.006 325.283,306.285 325.862,309.455 326.583 C 312.546 327.286,312.696 327.238,312.901 325.475 C 313.067 324.053,311.573 323.431,311.080 324.717 M46.269 325.591 C 45.946 326.114,51.402 332.830,52.149 332.830 C 53.304 332.830,51.504 329.589,48.745 326.698 C 47.425 325.316,46.653 324.970,46.269 325.591 M178.208 335.577 C 176.295 335.883,175.849 336.087,175.849 336.656 C 175.849 337.489,175.479 337.478,180.310 336.791 C 184.527 336.192,185.285 335.944,184.474 335.430 C 183.834 335.025,181.284 335.084,178.208 335.577 M160.257 335.996 C 160.121 336.349,160.431 336.596,161.207 336.751 C 163.042 337.118,169.057 337.019,169.057 336.622 C 169.057 335.546,160.658 334.950,160.257 335.996 M78.666 336.222 C 75.817 336.641,75.094 336.951,75.094 337.754 C 75.094 338.544,75.089 338.544,81.479 337.589 C 84.312 337.165,85.275 336.514,83.695 336.091 C 82.652 335.812,81.204 335.849,78.666 336.222 M91.021 362.897 C 90.667 363.039,90.816 363.472,91.562 364.471 C 93.399 366.931,96.292 370.189,96.641 370.189 C 97.787 370.189,95.610 366.209,93.079 363.679 C 92.016 362.616,91.865 362.559,91.021 362.897 M123.396 373.558 C 120.360 373.981,119.623 374.289,119.623 375.137 C 119.623 375.767,119.814 375.853,120.849 375.692 C 121.524 375.586,123.562 375.306,125.379 375.069 C 128.307 374.688,129.478 374.257,128.970 373.750 C 128.617 373.397,125.358 373.285,123.396 373.558 " stroke="none" fill="#58499e" fill-rule="evenodd"></path><path id="path2" d="M76.400 0.893 C 68.861 4.403,68.232 16.199,75.404 19.561 L 77.547 20.566 100.638 20.674 L 123.729 20.782 123.424 19.720 C 121.836 14.184,117.987 11.184,112.749 11.399 L 110.053 11.509 108.370 8.145 C 103.465 -1.662,97.609 -0.879,93.810 10.094 L 93.378 11.341 91.140 8.281 C 85.615 0.726,81.349 -1.412,76.400 0.893 M357.547 4.892 C 354.487 6.174,353.008 10.694,354.727 13.513 C 356.109 15.780,356.737 15.871,370.385 15.760 L 382.656 15.660 381.800 13.984 C 380.622 11.680,379.254 10.760,377.002 10.757 C 375.205 10.755,375.177 10.736,374.325 8.945 C 372.065 4.193,369.425 4.156,367.075 8.845 C 366.159 10.671,366.131 10.691,365.669 9.828 C 363.704 6.155,359.962 3.881,357.547 4.892 M294.800 31.916 C 286.654 35.976,286.890 48.661,295.158 51.116 C 298.395 52.077,341.887 51.986,341.887 51.017 C 341.887 46.791,336.736 42.471,331.684 42.460 L 328.463 42.453 327.098 39.623 C 322.547 30.186,317.398 29.827,313.357 38.664 C 311.614 42.475,312.021 42.507,308.778 38.302 C 303.410 31.342,299.519 29.564,294.800 31.916 M38.557 33.591 C 23.214 36.801,18.392 60.047,31.608 67.091 C 36.183 69.530,34.305 69.434,77.606 69.434 L 116.940 69.434 116.353 67.453 C 113.486 57.791,106.706 52.814,97.111 53.328 C 94.116 53.488,92.830 53.433,92.830 53.143 C 92.830 52.356,89.507 45.716,87.826 43.146 C 79.994 31.170,72.178 33.497,65.587 49.766 L 64.046 53.572 61.829 50.323 C 53.113 37.550,45.566 32.124,38.557 33.591 M354.956 72.282 C 344.145 75.408,344.531 75.265,344.522 76.154 C 344.518 76.616,347.484 88.861,347.707 89.302 C 347.797 89.480,371.454 83.037,371.731 82.759 C 371.927 82.564,371.685 81.012,371.154 79.042 C 370.652 77.182,370.053 74.939,369.823 74.057 C 369.586 73.148,369.180 72.453,368.885 72.453 C 368.481 72.453,368.624 73.401,369.525 76.698 C 370.978 82.014,370.991 82.303,369.811 82.669 C 366.831 83.593,348.619 88.366,348.514 88.251 C 348.194 87.901,345.041 76.404,345.243 76.323 C 345.369 76.272,348.274 77.226,351.698 78.443 C 358.991 81.034,358.183 81.195,362.351 76.317 C 366.458 71.511,366.518 71.429,366.094 71.167 C 365.897 71.045,364.022 72.877,361.927 75.237 L 358.119 79.529 353.177 77.901 C 350.459 77.005,347.698 76.151,347.042 76.003 C 346.052 75.780,347.296 75.367,354.340 73.575 C 366.514 70.478,366.038 70.627,365.793 69.990 C 365.495 69.214,365.781 69.153,354.956 72.282 M243.023 70.621 C 231.964 71.960,223.916 85.867,227.522 97.407 C 229.053 102.304,233.044 106.184,238.434 108.015 L 240.943 108.868 283.164 108.973 L 325.385 109.079 325.158 107.652 C 325.034 106.868,324.168 104.698,323.235 102.830 C 318.809 93.966,312.312 90.538,302.358 91.811 C 300.521 92.046,299.999 92.005,299.995 91.623 C 299.992 91.353,299.156 89.400,298.138 87.282 C 288.558 67.363,277.891 68.277,270.195 89.678 L 269.361 91.998 267.279 88.923 C 258.110 75.385,250.583 69.705,243.023 70.621 M120.000 87.912 C 119.420 88.105,121.680 88.241,125.859 88.264 C 135.096 88.315,135.441 88.545,135.460 94.641 C 135.480 101.113,135.033 101.509,127.726 101.509 L 122.573 101.509 121.003 102.857 L 119.434 104.204 119.317 102.857 C 119.227 101.819,119.033 101.509,118.474 101.509 C 114.357 101.509,113.536 90.448,117.518 88.640 C 118.628 88.136,118.828 87.939,118.237 87.933 C 113.621 87.886,112.698 100.321,117.196 101.948 C 118.397 102.382,118.491 102.533,118.491 104.038 C 118.491 106.042,118.499 106.041,120.876 103.962 L 122.817 102.264 128.018 102.264 L 133.219 102.264 134.628 100.972 L 136.038 99.679 136.038 94.941 L 136.038 90.202 134.805 88.969 L 133.572 87.736 127.258 87.667 C 123.785 87.629,120.519 87.740,120.000 87.912 M182.220 93.351 C 174.624 96.065,168.318 106.867,168.314 117.170 C 168.311 122.699,167.251 122.258,177.663 121.062 C 182.580 120.498,186.737 120.028,186.900 120.018 C 187.063 120.008,186.584 119.463,185.837 118.806 C 183.564 116.811,181.664 112.380,180.397 106.119 L 179.731 102.831 178.001 106.415 C 175.839 110.897,175.055 113.937,174.999 118.068 C 174.965 120.551,174.879 121.040,174.628 120.179 C 173.745 117.140,175.123 110.965,177.877 105.620 C 179.413 102.640,179.550 102.147,179.534 99.649 C 179.514 96.374,180.288 94.978,182.232 94.786 C 184.698 94.542,185.662 96.427,186.069 102.286 C 186.388 106.869,187.079 110.456,187.543 109.930 C 187.791 109.650,188.393 107.872,190.652 100.755 C 191.080 99.406,191.575 98.141,191.753 97.943 C 192.255 97.386,192.134 96.772,191.623 97.283 C 190.198 98.707,187.547 96.908,187.547 94.518 C 187.547 92.748,185.290 92.254,182.220 93.351 M12.770 94.915 C 10.218 96.301,9.105 100.996,10.789 103.273 C 12.266 105.271,12.506 105.301,25.987 105.194 L 38.454 105.094 37.740 103.498 C 36.835 101.479,35.101 100.381,32.812 100.379 C 31.208 100.377,31.065 100.294,30.639 99.116 C 28.857 94.187,25.405 93.777,23.151 98.225 L 22.175 100.150 21.396 99.037 C 18.458 94.840,15.505 93.429,12.770 94.915 M83.774 128.302 L 83.774 134.717 84.811 134.722 C 85.382 134.724,106.804 134.897,132.415 135.106 C 158.026 135.315,179.047 135.418,179.129 135.336 C 179.254 135.212,171.873 125.834,170.376 124.215 C 169.945 123.749,105.913 121.930,88.774 121.896 L 83.774 121.887 83.774 128.302 M207.618 125.521 C 209.364 127.387,209.928 130.205,209.281 133.835 L 209.001 135.406 211.387 135.619 C 212.700 135.736,235.976 135.939,263.113 136.071 L 312.453 136.311 312.453 131.748 C 312.453 127.316,312.428 127.179,311.604 127.019 C 311.137 126.928,289.953 126.413,264.528 125.874 C 239.104 125.335,215.670 124.791,212.453 124.666 L 206.604 124.438 207.618 125.521 M188.303 127.453 C 188.304 127.608,188.948 129.434,189.735 131.509 L 191.166 135.283 196.139 135.388 L 201.112 135.493 201.350 134.547 C 201.688 133.201,200.510 131.369,198.388 129.939 C 196.085 128.387,188.299 126.468,188.303 127.453 M93.019 129.245 C 93.019 130.608,91.505 131.090,90.696 129.984 C 89.970 128.991,90.724 127.848,92.007 127.996 C 92.854 128.094,93.019 128.298,93.019 129.245 M99.595 128.627 C 100.125 129.618,99.282 130.676,98.096 130.508 C 97.165 130.376,96.738 129.479,97.126 128.469 C 97.427 127.684,99.149 127.794,99.595 128.627 M106.018 128.466 C 106.613 129.183,105.902 130.566,104.939 130.566 C 103.851 130.566,103.262 129.635,103.761 128.703 C 104.244 127.801,105.368 127.683,106.018 128.466 M103.566 138.267 C 98.075 140.658,98.897 148.937,104.789 150.586 C 111.140 152.364,115.744 143.889,110.885 139.365 C 109.127 137.728,105.910 137.246,103.566 138.267 M173.208 144.906 L 173.208 150.943 180.377 150.943 C 188.399 150.943,187.836 151.194,187.139 147.943 C 186.881 146.743,186.532 146.038,186.195 146.038 C 185.880 146.038,185.660 145.660,185.660 145.118 C 185.660 144.448,185.466 144.212,184.948 144.252 C 184.292 144.301,184.280 144.375,184.802 145.171 C 185.117 145.652,185.196 146.038,184.981 146.038 C 184.766 146.038,184.505 145.825,184.400 145.566 C 184.271 145.247,184.107 145.222,183.897 145.488 C 183.312 146.225,181.575 146.086,181.320 145.280 C 180.961 144.150,181.331 143.873,183.250 143.834 C 185.608 143.787,185.612 143.761,183.724 141.161 L 182.075 138.890 177.642 138.879 L 173.208 138.868 173.208 144.906 M192.591 139.471 C 193.196 141.391,193.585 144.573,193.585 147.599 C 193.585 150.887,193.600 150.943,194.500 150.943 C 195.443 150.943,195.744 150.317,199.179 141.226 L 199.927 139.245 198.171 139.242 C 197.205 139.240,195.504 139.129,194.390 138.996 C 192.518 138.771,192.382 138.807,192.591 139.471 M206.092 141.738 C 205.395 143.169,203.909 145.746,202.790 147.466 C 201.670 149.185,200.755 150.671,200.755 150.768 C 200.755 150.864,213.491 150.943,229.057 150.943 L 257.358 150.943 257.358 145.283 L 257.358 139.623 248.396 139.622 C 243.467 139.622,232.217 139.512,223.396 139.379 L 207.358 139.136 206.092 141.738 M26.792 142.213 C 26.792 142.392,28.783 144.868,31.217 147.715 C 36.364 153.737,34.994 153.428,43.353 150.454 C 46.613 149.294,49.017 148.615,48.914 148.883 C 48.815 149.143,48.089 151.751,47.303 154.678 C 46.435 157.905,45.687 160.000,45.402 160.000 C 44.563 160.000,24.727 154.639,24.382 154.319 C 24.098 154.056,24.534 151.915,26.260 145.094 C 26.410 144.501,26.374 144.461,26.089 144.907 C 25.450 145.909,23.012 154.861,23.303 155.138 C 23.737 155.549,45.795 161.427,46.255 161.255 C 46.684 161.093,50.308 147.918,50.006 147.616 C 49.144 146.755,26.792 141.552,26.792 142.213 M121.132 144.151 L 121.132 146.415 137.736 146.415 L 154.340 146.415 154.340 144.151 L 154.340 141.887 137.736 141.887 L 121.132 141.887 121.132 144.151 M37.608 145.078 C 42.556 146.445,46.905 147.688,47.274 147.839 C 47.734 148.028,46.109 148.694,42.066 149.973 L 36.189 151.831 34.426 149.784 C 33.457 148.657,31.470 146.478,30.011 144.940 C 28.552 143.402,27.641 142.244,27.986 142.368 C 28.330 142.491,32.661 143.711,37.608 145.078 M180.803 142.981 C 180.464 143.196,180.340 143.782,180.444 144.674 C 180.540 145.494,180.441 146.038,180.197 146.038 C 179.949 146.038,179.849 145.430,179.941 144.471 C 180.067 143.148,179.995 142.940,179.479 143.138 C 179.143 143.267,178.868 143.208,178.868 143.007 C 178.868 142.806,179.420 142.644,180.094 142.647 C 180.936 142.651,181.158 142.756,180.803 142.981 M183.019 144.506 C 183.019 144.726,182.669 144.906,182.242 144.906 C 181.815 144.906,181.568 145.073,181.695 145.278 C 181.986 145.749,183.500 145.537,183.679 145.000 C 183.753 144.779,183.635 144.487,183.416 144.352 C 183.198 144.217,183.019 144.286,183.019 144.506 M360.000 148.149 C 338.476 152.052,333.878 179.873,353.174 189.447 C 366.719 196.167,383.247 187.143,384.669 172.251 C 384.897 169.855,384.658 170.524,383.808 174.658 C 383.139 177.913,381.185 181.418,378.389 184.379 C 365.116 198.436,341.604 188.793,341.948 169.434 L 341.999 166.604 342.279 170.377 C 343.643 188.743,364.421 197.046,377.200 184.332 C 389.502 172.094,382.119 151.364,364.827 149.592 C 356.457 148.735,347.204 154.087,344.044 161.613 C 343.629 162.603,343.213 163.339,343.122 163.248 C 342.489 162.615,346.062 156.916,348.651 154.428 C 360.213 143.316,380.627 149.779,383.770 165.547 C 384.563 169.526,384.911 170.251,384.704 167.493 C 383.829 155.844,371.369 146.087,360.000 148.149 M362.642 152.075 C 362.642 153.113,362.811 153.962,363.019 153.962 C 363.226 153.962,363.396 153.107,363.396 152.062 L 363.396 150.163 365.377 150.411 C 368.989 150.863,374.351 153.235,376.085 155.148 C 376.590 155.704,376.529 155.851,375.493 156.589 C 374.369 157.389,373.987 158.113,374.688 158.113 C 374.880 158.113,375.534 157.694,376.143 157.182 L 377.250 156.251 378.020 157.088 C 380.251 159.514,382.124 163.777,382.821 168.019 L 383.053 169.434 380.960 169.434 C 379.810 169.434,378.868 169.604,378.868 169.811 C 378.868 170.019,379.817 170.189,380.977 170.189 L 383.085 170.189 382.838 171.792 C 382.209 175.868,380.630 179.626,378.373 182.417 L 377.487 183.514 376.459 182.167 C 375.423 180.809,374.340 180.092,374.340 180.765 C 374.340 180.966,374.943 181.797,375.680 182.613 L 377.020 184.097 375.004 185.619 C 372.719 187.345,369.434 188.901,367.407 189.219 C 366.654 189.337,365.443 189.527,364.717 189.640 L 363.396 189.846 363.396 187.753 C 363.396 186.602,363.226 185.660,363.019 185.660 C 362.811 185.660,362.642 186.590,362.642 187.726 L 362.642 189.792 361.415 189.587 C 356.436 188.755,354.306 187.918,351.029 185.505 C 348.004 183.278,347.976 183.196,349.656 181.475 C 351.352 179.738,350.797 179.489,348.914 181.142 L 347.613 182.284 346.874 181.237 C 344.972 178.541,343.926 175.793,343.421 172.170 L 343.145 170.189 345.180 170.189 C 346.440 170.189,347.126 170.045,346.981 169.811 C 346.853 169.604,345.937 169.434,344.947 169.434 L 343.145 169.434 343.425 167.375 C 343.949 163.512,345.547 159.830,347.769 157.372 L 349.096 155.903 350.367 157.290 C 352.023 159.097,352.403 158.679,350.940 156.659 L 349.800 155.085 352.092 153.604 C 354.337 152.152,357.938 150.751,360.189 150.452 C 362.745 150.113,362.642 150.044,362.642 152.075 M84.906 198.491 C 84.906 223.189,85.049 243.396,85.225 243.396 C 85.816 243.396,90.173 240.408,91.895 238.820 C 94.416 236.496,96.048 234.087,97.781 230.132 C 98.632 228.192,99.595 226.392,99.922 226.134 C 100.461 225.708,100.454 225.468,99.846 223.538 C 99.182 221.433,99.184 221.400,99.991 220.309 C 100.592 219.496,100.742 218.914,100.562 218.094 C 100.409 217.398,100.470 216.981,100.725 216.981 C 100.949 216.981,101.132 217.376,101.132 217.859 C 101.132 218.341,101.543 219.122,102.045 219.594 C 103.621 221.075,103.942 222.355,103.248 224.393 C 102.914 225.372,102.640 226.779,102.639 227.520 C 102.621 236.436,95.301 247.560,86.509 252.030 L 84.906 252.846 84.906 266.951 C 84.906 279.424,84.998 281.662,85.705 286.283 C 86.767 293.226,86.827 304.596,85.835 310.943 C 85.349 314.056,85.114 318.192,85.005 325.566 L 84.852 335.849 94.313 335.849 C 99.516 335.849,103.774 335.807,103.774 335.755 C 103.774 335.703,104.035 334.217,104.354 332.453 C 105.208 327.727,105.505 319.023,104.918 315.915 L 104.437 313.364 102.581 312.923 C 98.924 312.055,97.978 310.917,97.198 306.449 C 96.782 304.064,96.412 303.113,95.422 301.882 C 92.310 298.009,93.664 293.206,99.515 287.365 C 101.442 285.441,103.052 283.633,103.093 283.348 C 103.133 283.063,103.176 281.047,103.187 278.868 C 103.220 272.428,105.905 269.636,112.042 269.656 C 116.013 269.670,117.431 270.536,116.024 272.091 C 115.500 272.669,115.519 272.922,116.213 274.682 C 117.367 277.611,116.920 279.623,115.115 279.623 C 114.795 279.623,114.707 279.913,114.856 280.472 C 114.982 280.939,115.086 281.766,115.089 282.309 C 115.094 283.216,115.283 283.335,117.373 283.746 C 121.473 284.553,125.222 286.863,132.075 292.806 C 136.391 296.547,139.623 297.993,139.623 296.182 C 139.623 295.999,139.873 295.849,140.180 295.849 C 140.486 295.849,141.413 294.958,142.239 293.868 C 143.066 292.778,143.982 291.611,144.277 291.274 C 144.571 290.936,145.074 289.917,145.395 289.009 C 145.853 287.713,145.986 287.561,146.014 288.302 C 146.048 289.210,146.099 289.189,147.389 287.736 C 148.669 286.295,148.719 286.273,148.508 287.264 C 148.387 287.835,148.374 288.302,148.480 288.302 C 148.900 288.302,152.866 279.882,152.678 279.392 C 152.525 278.995,152.871 278.868,154.105 278.868 C 155.000 278.868,157.260 278.760,159.127 278.627 L 162.521 278.386 163.311 275.702 C 163.746 274.226,164.208 272.742,164.338 272.404 C 164.504 271.971,164.187 271.549,163.271 270.982 C 161.644 269.977,160.888 268.415,160.542 265.344 C 160.359 263.718,160.004 262.630,159.435 261.948 C 155.720 257.495,156.715 252.567,162.476 246.883 C 166.926 242.493,166.925 242.495,166.610 238.943 C 166.311 235.557,166.751 233.394,168.063 231.810 C 168.544 231.229,169.027 230.394,169.138 229.954 C 169.486 228.563,181.186 208.302,181.641 208.301 C 181.880 208.301,182.558 207.537,183.148 206.603 C 184.277 204.816,184.657 204.467,184.276 205.566 C 184.110 206.045,184.313 205.967,185.013 205.283 L 185.978 204.340 185.536 199.057 L 185.094 193.774 238.491 188.796 C 267.858 186.058,292.240 183.808,292.671 183.796 C 293.427 183.774,293.491 184.182,294.444 195.189 C 294.988 201.467,295.715 207.856,296.060 209.386 C 296.585 211.715,296.604 212.221,296.174 212.493 C 295.787 212.738,295.848 212.820,296.420 212.824 C 297.044 212.829,297.525 213.721,299.116 217.830 L 301.051 222.830 303.828 222.850 C 306.937 222.873,308.132 223.164,308.444 223.977 C 308.560 224.280,308.910 224.528,309.220 224.528 C 310.202 224.528,310.643 225.879,310.176 227.455 C 309.946 228.232,309.812 229.792,309.879 230.921 L 310.000 232.973 312.986 235.096 L 315.971 237.219 320.406 252.913 C 322.845 261.544,325.025 268.951,325.250 269.373 C 325.476 269.794,325.660 271.254,325.660 272.617 L 325.660 275.094 331.887 275.094 L 338.113 275.094 338.113 277.925 L 338.113 280.755 331.321 280.755 C 327.264 280.755,324.528 280.900,324.528 281.115 C 324.528 282.054,321.163 298.982,318.471 311.586 C 316.821 319.308,315.472 326.114,315.472 326.710 C 315.472 327.696,315.371 327.779,314.357 327.630 C 313.058 327.440,313.290 326.791,311.708 335.048 C 311.096 338.239,310.480 340.956,310.339 341.086 C 310.198 341.215,310.182 340.896,310.303 340.377 C 311.051 337.179,311.050 335.514,310.300 335.711 C 309.896 335.816,308.138 336.106,306.394 336.354 L 303.222 336.804 302.785 338.874 C 301.979 342.697,302.259 339.869,303.398 332.679 C 304.717 324.358,304.687 324.764,303.962 325.042 C 303.116 325.367,303.266 324.285,304.153 323.664 C 305.764 322.535,305.888 319.189,304.398 317.097 C 293.987 302.485,293.128 285.106,302.156 271.782 L 303.250 270.168 301.991 260.670 C 300.543 249.753,300.814 250.564,299.076 251.944 L 297.723 253.019 298.862 253.137 C 300.190 253.275,300.186 253.261,299.383 255.365 L 298.765 256.981 242.549 256.981 L 186.333 256.981 186.546 257.830 C 186.663 258.297,186.873 260.046,187.012 261.716 L 187.265 264.752 207.406 264.593 C 229.570 264.418,227.815 264.228,227.311 266.745 L 227.075 267.925 207.155 267.925 L 187.235 267.925 187.099 272.358 C 187.024 274.797,187.004 276.858,187.055 276.938 C 187.105 277.018,202.258 276.262,220.729 275.257 C 239.199 274.252,254.425 273.545,254.565 273.684 C 254.797 273.917,256.552 324.591,256.588 332.126 L 256.604 335.384 243.679 335.631 C 236.571 335.767,220.057 336.039,206.981 336.237 C 193.890 336.434,181.621 336.790,179.677 337.029 C 177.158 337.338,176.074 337.345,175.895 337.055 C 175.721 336.774,173.294 336.717,168.030 336.873 L 160.417 337.097 160.178 339.020 C 159.008 348.427,159.563 364.613,161.427 375.472 L 161.719 377.170 280.859 377.265 L 400.000 377.360 400.000 348.857 L 400.000 320.354 397.882 317.539 L 395.763 314.724 393.883 316.415 C 391.935 318.166,389.281 319.245,386.920 319.245 L 385.675 319.245 385.566 327.642 L 385.457 336.038 385.370 327.542 L 385.283 319.047 382.820 318.342 C 381.465 317.954,379.423 317.074,378.283 316.388 C 376.286 315.185,376.162 315.160,374.895 315.689 C 374.172 315.991,372.566 316.345,371.325 316.474 L 369.071 316.710 368.962 325.242 L 368.853 333.774 368.766 325.242 L 368.679 316.711 365.672 316.108 C 357.391 314.447,347.919 308.465,346.792 304.185 C 345.879 300.719,347.127 298.506,352.553 293.972 C 359.131 288.474,359.448 286.365,354.782 279.156 C 351.324 273.816,349.562 268.338,349.410 262.453 C 349.326 259.209,326.640 240.609,314.347 233.705 L 312.454 232.642 312.453 193.113 L 312.453 153.585 255.518 153.585 C 205.369 153.585,198.527 153.652,198.113 154.151 C 197.855 154.462,197.428 154.717,197.164 154.717 C 196.753 154.717,196.018 155.841,196.312 156.020 C 196.369 156.055,197.646 156.802,199.151 157.681 C 204.326 160.704,202.212 160.939,196.359 157.991 L 193.690 156.647 193.451 159.173 C 193.320 160.562,193.212 162.872,193.210 164.306 L 193.208 166.914 246.604 166.688 C 275.972 166.564,300.000 166.574,300.000 166.709 C 300.000 166.845,299.722 167.683,299.383 168.572 L 298.765 170.189 248.839 170.189 C 220.721 170.189,198.823 170.333,198.708 170.519 C 198.596 170.700,197.100 171.048,195.384 171.292 C 193.668 171.536,191.690 171.823,190.989 171.932 C 189.786 172.117,189.724 172.073,189.899 171.158 L 190.084 170.189 186.551 170.189 L 183.019 170.189 183.019 168.491 L 183.019 166.792 185.718 166.792 L 188.417 166.792 188.171 162.771 C 188.035 160.560,187.925 157.588,187.925 156.168 L 187.925 153.585 136.415 153.585 L 84.906 153.585 84.906 198.491 M193.585 154.717 C 193.585 156.069,193.699 156.100,194.703 155.023 C 195.285 154.397,195.358 154.123,195.001 153.896 C 194.070 153.306,193.585 153.587,193.585 154.717 M361.509 166.226 L 361.509 173.585 365.755 173.579 C 368.090 173.576,370.255 173.409,370.566 173.208 C 370.949 172.960,369.700 172.840,366.698 172.836 L 362.264 172.830 362.264 165.849 C 362.264 161.447,362.125 158.868,361.887 158.868 C 361.648 158.868,361.509 161.572,361.509 166.226 M154.850 171.981 C 154.741 172.759,154.588 173.608,154.508 173.868 C 154.395 174.238,149.881 174.340,133.597 174.340 L 112.830 174.340 112.830 172.830 C 112.830 171.903,113.012 171.300,113.302 171.267 C 113.561 171.237,121.840 171.100,131.698 170.963 C 141.557 170.826,150.843 170.680,152.335 170.640 L 155.047 170.566 154.850 171.981 M227.543 177.830 C 227.541 178.090,227.434 178.939,227.305 179.717 L 227.071 181.132 205.045 181.132 L 183.019 181.132 183.019 179.437 L 183.019 177.743 201.981 177.641 C 212.410 177.586,222.429 177.499,224.245 177.449 C 226.685 177.382,227.546 177.482,227.543 177.830 M154.976 181.643 C 155.068 181.734,155.028 182.421,154.888 183.169 L 154.633 184.528 133.920 184.528 L 113.208 184.528 113.208 182.769 L 113.208 181.010 134.008 181.243 C 145.449 181.371,154.884 181.551,154.976 181.643 M142.769 191.948 L 154.717 192.197 154.717 193.646 L 154.717 195.094 133.962 195.094 L 113.208 195.094 113.208 193.396 L 113.208 191.698 122.014 191.698 C 126.857 191.698,136.197 191.810,142.769 191.948 M142.203 203.646 L 154.717 203.896 154.717 205.344 L 154.717 206.792 133.962 206.792 L 113.208 206.792 113.208 205.094 L 113.208 203.396 121.448 203.396 C 125.980 203.396,135.320 203.509,142.203 203.646 M48.058 210.057 C 48.192 211.645,48.302 213.767,48.302 214.774 C 48.302 216.166,48.440 216.604,48.880 216.604 C 49.655 216.604,49.714 216.326,49.990 211.415 L 50.229 207.170 49.022 207.170 L 47.814 207.170 48.058 210.057 M185.535 207.799 C 185.076 208.257,185.274 208.659,185.849 208.438 C 186.160 208.319,186.415 208.069,186.415 207.884 C 186.415 207.489,185.895 207.438,185.535 207.799 M184.906 209.623 C 184.387 209.919,184.085 210.168,184.235 210.175 C 184.385 210.183,183.933 211.335,183.230 212.736 C 182.010 215.168,177.366 226.097,176.834 227.786 C 176.617 228.476,176.766 228.626,177.875 228.834 C 179.722 229.180,180.253 229.935,179.479 231.117 C 178.910 231.985,178.920 232.180,179.623 233.963 C 180.740 236.796,180.549 237.723,178.632 238.796 C 177.775 239.276,178.321 241.972,179.243 241.813 C 179.607 241.750,181.808 239.871,184.135 237.637 L 188.365 233.576 187.388 221.788 C 186.851 215.305,186.412 209.788,186.413 209.528 C 186.416 208.929,186.083 208.949,184.906 209.623 M47.925 218.491 C 47.925 219.044,48.176 219.245,48.868 219.245 C 49.560 219.245,49.811 219.044,49.811 218.491 C 49.811 217.937,49.560 217.736,48.868 217.736 C 48.176 217.736,47.925 217.937,47.925 218.491 M297.503 232.642 C 297.635 234.717,297.850 237.646,297.980 239.151 L 298.217 241.887 297.128 241.897 C 295.422 241.913,289.001 242.572,288.824 242.749 C 288.569 243.003,291.380 249.479,291.692 249.356 C 291.846 249.295,293.692 247.266,295.792 244.848 C 298.507 241.722,300.105 240.211,301.315 239.625 L 303.019 238.801 303.019 236.747 C 303.019 235.132,302.878 234.643,302.358 234.459 C 301.316 234.089,300.377 233.147,300.377 232.471 C 300.377 232.130,299.677 231.180,298.820 230.360 L 297.263 228.868 297.503 232.642 M235.540 246.869 C 210.568 248.943,190.052 250.555,189.948 250.451 C 189.844 250.347,189.663 248.929,189.547 247.301 C 189.244 243.076,189.147 243.043,186.636 246.330 L 184.417 249.234 184.945 251.315 L 185.472 253.396 213.962 253.515 C 229.632 253.580,252.529 253.517,264.843 253.375 L 287.234 253.116 286.991 252.313 C 286.858 251.871,286.275 249.642,285.697 247.358 L 284.645 243.208 282.794 243.152 C 281.776 243.122,260.512 244.794,235.540 246.869 M139.838 278.994 C 140.446 279.323,140.837 279.599,140.706 279.608 C 140.347 279.630,136.226 277.705,136.226 277.514 C 136.226 277.314,138.312 278.168,139.838 278.994 M140.377 277.925 C 140.896 278.221,141.151 278.464,140.943 278.464 C 140.736 278.464,140.142 278.221,139.623 277.925 C 139.104 277.628,138.849 277.385,139.057 277.385 C 139.264 277.385,139.858 277.628,140.377 277.925 M142.642 280.189 C 143.160 280.485,143.415 280.728,143.208 280.728 C 143.000 280.728,142.406 280.485,141.887 280.189 C 141.368 279.892,141.113 279.649,141.321 279.649 C 141.528 279.649,142.123 279.892,142.642 280.189 M310.079 283.356 C 303.514 293.230,302.936 296.093,305.731 304.906 C 307.203 309.547,307.309 309.608,307.885 306.134 C 308.590 301.886,312.081 282.603,312.326 281.604 C 312.710 280.041,311.824 280.731,310.079 283.356 M147.305 282.133 C 147.940 282.491,147.947 282.552,147.380 282.770 C 147.013 282.911,146.446 282.725,146.014 282.323 C 145.151 281.519,145.996 281.395,147.305 282.133 M330.235 301.590 L 331.092 306.038 335.776 306.038 C 340.443 306.038,340.458 306.035,340.250 305.189 C 339.550 302.349,336.203 284.033,336.319 283.683 C 336.549 282.994,346.663 332.153,347.750 339.245 C 348.653 345.134,346.023 333.517,342.155 314.528 L 340.925 308.491 336.311 308.385 C 333.774 308.326,331.698 308.342,331.698 308.420 C 331.698 308.498,332.212 311.093,332.840 314.186 C 333.733 318.585,336.210 331.369,337.915 340.377 C 338.071 341.203,338.049 341.226,337.738 340.566 C 336.994 338.988,326.741 288.770,326.258 284.340 C 326.026 282.213,328.922 294.774,330.235 301.590 M142.075 284.151 C 141.753 284.774,141.405 285.283,141.301 285.283 C 141.198 285.283,141.376 284.774,141.698 284.151 C 142.020 283.528,142.368 283.019,142.472 283.019 C 142.576 283.019,142.397 283.528,142.075 284.151 M143.774 288.679 C 142.525 291.170,141.419 293.208,141.315 293.208 C 141.211 293.208,142.148 291.170,143.396 288.679 C 144.645 286.189,145.751 284.151,145.855 284.151 C 145.959 284.151,145.022 286.189,143.774 288.679 M133.631 286.001 C 133.003 286.399,133.447 287.296,134.083 286.915 C 134.328 286.768,134.286 286.946,133.991 287.310 C 133.500 287.915,133.423 287.919,133.110 287.359 C 132.692 286.613,133.007 285.658,133.667 285.666 C 134.034 285.671,134.025 285.752,133.631 286.001 M311.387 290.943 C 311.112 292.500,310.804 294.071,310.701 294.434 C 310.501 295.144,310.839 295.269,311.620 294.773 C 311.971 294.550,312.077 293.574,311.997 291.288 L 311.887 288.113 311.387 290.943 M137.943 290.908 C 137.114 292.511,136.845 292.387,137.621 290.759 C 137.966 290.036,138.315 289.510,138.397 289.592 C 138.479 289.674,138.275 290.266,137.943 290.908 M136.740 293.019 C 136.484 293.687,136.236 293.716,135.472 293.166 C 134.991 292.820,135.003 292.790,135.554 292.967 C 135.911 293.081,136.303 293.012,136.425 292.814 C 136.772 292.252,136.982 292.389,136.740 293.019 M145.484 296.710 C 141.161 304.180,136.335 304.469,127.547 297.782 C 126.198 296.756,125.039 295.971,124.971 296.037 C 124.671 296.332,127.693 313.681,128.492 316.254 C 129.755 320.320,130.490 324.525,130.997 330.582 L 131.439 335.849 139.495 335.849 L 147.551 335.849 147.357 332.170 C 147.250 330.146,146.981 321.104,146.759 312.077 C 146.306 293.681,146.422 295.088,145.484 296.710 M310.385 296.698 C 310.267 297.373,310.024 298.746,309.845 299.750 C 309.533 301.499,309.553 301.566,310.326 301.359 C 310.769 301.240,311.259 301.140,311.415 301.137 C 312.002 301.127,311.736 295.472,311.149 295.472 C 310.825 295.472,310.512 295.975,310.385 296.698 M309.307 302.736 C 309.193 303.203,308.983 304.477,308.840 305.566 L 308.582 307.548 309.857 307.305 C 310.558 307.171,311.154 307.043,311.180 307.021 C 311.206 306.999,311.347 305.835,311.493 304.434 L 311.758 301.887 310.637 301.887 C 309.788 301.887,309.465 302.093,309.307 302.736 M308.156 309.441 C 307.840 311.414,308.215 312.944,308.945 312.664 C 309.248 312.548,309.906 312.453,310.408 312.453 C 311.272 312.453,311.321 312.332,311.321 310.189 L 311.321 307.925 309.860 307.925 C 308.446 307.925,308.391 307.973,308.156 309.441 M309.717 313.468 C 308.874 313.688,308.886 313.895,309.871 316.101 C 310.727 318.015,310.834 317.911,311.022 315.000 C 311.137 313.215,311.054 313.118,309.717 313.468 M309.067 319.407 C 308.139 319.892,307.170 320.209,306.913 320.110 C 306.449 319.932,305.758 321.733,306.143 322.118 C 306.605 322.580,310.943 319.979,310.943 319.240 C 310.943 318.828,310.901 318.498,310.849 318.508 C 310.797 318.517,309.995 318.922,309.067 319.407 M307.925 323.242 C 306.575 323.967,305.896 324.480,306.415 324.381 C 306.934 324.283,308.038 324.081,308.868 323.934 C 310.377 323.665,310.927 323.246,310.938 322.358 C 310.946 321.686,310.668 321.767,307.925 323.242 M308.491 324.906 L 306.604 325.164 308.585 325.224 C 309.694 325.257,310.566 325.117,310.566 324.906 C 310.566 324.698,310.524 324.555,310.472 324.588 C 310.420 324.620,309.528 324.763,308.491 324.906 M304.926 327.780 C 304.687 329.153,304.549 330.335,304.620 330.406 C 304.717 330.504,311.669 329.783,311.937 329.648 C 311.965 329.634,312.099 329.099,312.236 328.460 L 312.485 327.296 309.818 326.820 C 308.352 326.558,306.913 326.105,306.622 325.813 C 305.681 324.873,305.369 325.235,304.926 327.780 M117.181 328.396 C 117.097 328.656,116.689 330.142,116.275 331.698 C 115.862 333.255,115.409 334.825,115.268 335.189 C 115.040 335.780,115.296 335.849,117.703 335.849 L 120.392 335.849 120.147 334.811 C 119.808 333.374,117.720 327.925,117.508 327.925 C 117.413 327.925,117.266 328.137,117.181 328.396 M309.057 330.768 C 307.708 331.027,306.074 331.258,305.426 331.280 C 304.340 331.318,304.227 331.447,303.992 332.925 C 303.852 333.807,303.644 334.903,303.530 335.362 C 303.336 336.141,303.402 336.172,304.545 335.844 C 305.218 335.651,306.993 335.382,308.489 335.247 L 311.210 335.000 311.570 332.594 C 311.767 331.271,311.835 330.213,311.719 330.243 C 311.604 330.273,310.406 330.509,309.057 330.768 " stroke="none" fill="#ddd5f9" fill-rule="evenodd"></path><path id="path3" d="M103.761 128.703 C 103.262 129.635,103.851 130.566,104.939 130.566 C 105.902 130.566,106.613 129.183,106.018 128.466 C 105.368 127.683,104.244 127.801,103.761 128.703 M365.188 227.331 C 360.991 228.829,357.307 233.879,353.541 243.300 C 347.707 257.892,348.136 268.738,354.970 279.418 C 359.104 285.876,359.074 287.911,354.787 291.887 C 346.456 299.612,346.063 300.207,346.849 303.871 C 347.895 308.751,357.765 314.809,367.261 316.400 L 368.674 316.637 368.774 291.809 L 368.873 266.981 368.965 291.836 L 369.057 316.691 371.178 316.426 C 372.344 316.280,373.964 315.926,374.776 315.639 C 376.196 315.139,376.329 315.164,378.151 316.285 C 379.797 317.298,383.923 318.868,384.939 318.868 C 385.130 318.868,385.319 315.963,385.364 312.358 L 385.445 305.849 385.647 312.453 L 385.849 319.057 387.825 319.005 C 392.017 318.896,397.736 314.072,397.736 310.645 C 397.736 310.259,397.142 309.108,396.415 308.086 C 394.741 305.733,394.743 304.579,396.426 301.698 C 401.610 292.821,401.337 290.526,394.514 285.660 C 391.887 283.786,391.595 283.076,391.961 279.434 C 392.740 271.674,392.007 267.145,389.604 264.889 C 388.560 263.908,385.455 263.453,384.240 264.103 C 383.583 264.455,383.131 264.272,381.256 262.892 C 376.737 259.565,375.815 257.571,376.544 252.697 C 377.883 243.737,377.937 241.293,376.904 236.426 C 375.407 229.376,370.384 225.477,365.188 227.331 M19.243 229.766 C 9.069 233.086,-0.201 259.899,4.095 273.580 C 5.190 277.069,5.982 278.663,8.382 282.210 C 12.490 288.280,12.308 291.016,7.525 295.125 C -0.260 301.812,-1.279 303.753,0.704 308.116 C 2.683 312.473,15.162 319.245,21.211 319.245 L 22.280 319.245 22.264 303.868 C 22.238 278.574,22.256 276.092,22.461 276.297 C 22.569 276.405,22.653 286.113,22.648 297.869 L 22.639 319.245 24.116 319.245 C 30.459 319.245,39.583 311.400,39.614 305.919 C 39.624 304.212,39.205 303.328,37.456 301.373 C 34.244 297.782,34.503 294.664,38.495 288.862 C 44.766 279.747,44.764 272.527,38.491 268.214 C 29.386 261.955,28.913 261.027,30.417 252.359 C 32.808 238.575,27.171 227.178,19.243 229.766 M372.792 281.038 C 369.755 284.777,368.768 285.816,370.373 283.585 C 371.638 281.827,375.099 277.736,375.321 277.736 C 375.405 277.736,374.267 279.222,372.792 281.038 M26.560 283.208 C 24.764 285.387,23.213 287.170,23.112 287.170 C 23.011 287.170,23.576 286.363,24.368 285.377 C 26.656 282.531,29.494 279.245,29.666 279.245 C 29.753 279.245,28.355 281.028,26.560 283.208 M385.565 296.866 C 385.498 299.109,385.443 297.377,385.443 293.019 C 385.442 288.660,385.497 286.826,385.564 288.942 C 385.631 291.058,385.632 294.624,385.565 296.866 M361.368 303.553 C 365.007 306.285,368.538 309.266,366.928 308.247 C 365.198 307.153,356.976 300.755,357.299 300.755 C 357.487 300.755,359.318 302.014,361.368 303.553 M15.767 307.722 C 17.902 309.341,19.566 310.749,19.465 310.850 C 19.364 310.951,19.040 310.801,18.746 310.517 C 18.451 310.232,16.580 308.811,14.589 307.358 C 12.597 305.906,10.962 304.569,10.955 304.388 C 10.949 304.207,11.156 304.220,11.415 304.418 C 11.675 304.616,13.633 306.102,15.767 307.722 " stroke="none" fill="#5ebc86" fill-rule="evenodd"></path><path id="path4" d="M187.591 94.383 C 187.547 95.767,188.687 97.736,189.533 97.736 C 189.764 97.736,189.584 97.392,189.132 96.971 C 188.681 96.550,188.231 95.828,188.132 95.367 C 188.034 94.906,187.882 94.189,187.794 93.774 C 187.707 93.358,187.615 93.633,187.591 94.383 M180.405 95.711 C 179.975 96.258,179.629 96.980,179.637 97.315 C 179.646 97.650,179.885 97.390,180.169 96.736 C 180.454 96.082,180.999 95.366,181.381 95.144 C 181.763 94.922,181.876 94.735,181.631 94.728 C 181.387 94.722,180.835 95.164,180.405 95.711 M185.748 100.000 C 185.748 100.726,185.826 101.024,185.921 100.660 C 186.015 100.297,186.015 99.703,185.921 99.340 C 185.826 98.976,185.748 99.274,185.748 100.000 M178.835 103.666 C 178.298 104.763,177.962 105.660,178.088 105.660 C 178.454 105.660,180.120 102.427,179.958 102.030 C 179.877 101.833,179.372 102.569,178.835 103.666 M174.569 115.691 C 174.273 116.462,174.339 119.165,174.683 120.377 C 174.848 120.960,174.965 120.130,174.989 118.208 C 175.029 115.018,174.968 114.651,174.569 115.691 M167.799 122.893 C 167.252 123.440,167.603 123.774,168.725 123.774 C 169.730 123.774,169.834 123.690,169.434 123.208 C 168.938 122.610,168.220 122.472,167.799 122.893 M89.717 134.999 C 92.259 135.064,96.420 135.064,98.962 134.999 C 101.505 134.934,99.425 134.880,94.340 134.880 C 89.255 134.880,87.175 134.934,89.717 134.999 M138.019 135.377 C 141.599 135.439,147.458 135.439,151.038 135.377 C 154.618 135.315,151.689 135.264,144.528 135.264 C 137.368 135.264,134.439 135.315,138.019 135.377 M191.320 135.755 C 191.320 135.910,193.383 135.985,195.906 135.920 C 199.381 135.831,200.569 135.923,200.807 136.298 C 201.043 136.670,201.122 136.629,201.126 136.132 C 201.132 135.537,200.649 135.472,196.226 135.472 C 193.528 135.472,191.320 135.599,191.320 135.755 M209.344 135.739 C 209.813 135.829,210.493 135.825,210.853 135.731 C 211.214 135.637,210.830 135.563,210.000 135.567 C 209.170 135.571,208.875 135.648,209.344 135.739 M245.943 136.131 C 249.524 136.193,255.382 136.193,258.962 136.131 C 262.542 136.069,259.613 136.019,252.453 136.019 C 245.292 136.019,242.363 136.069,245.943 136.131 M298.208 136.508 C 300.854 136.573,305.184 136.573,307.830 136.508 C 310.476 136.444,308.311 136.390,303.019 136.390 C 297.726 136.390,295.561 136.444,298.208 136.508 M105.755 137.619 C 106.118 137.714,106.712 137.714,107.075 137.619 C 107.439 137.524,107.142 137.446,106.415 137.446 C 105.689 137.446,105.392 137.524,105.755 137.619 M200.000 138.428 C 200.000 138.712,199.100 138.894,197.453 138.941 L 194.906 139.013 197.320 139.149 C 199.559 139.274,200.881 138.868,200.258 138.245 C 200.116 138.103,200.000 138.186,200.000 138.428 M172.915 144.811 L 172.999 151.132 173.112 145.014 L 173.226 138.896 176.707 138.772 L 180.189 138.647 176.509 138.569 L 172.830 138.491 172.915 144.811 M208.208 139.134 C 208.675 139.224,209.439 139.224,209.906 139.134 C 210.373 139.044,209.991 138.971,209.057 138.971 C 208.123 138.971,207.741 139.044,208.208 139.134 M231.981 139.526 C 233.901 139.595,237.042 139.595,238.962 139.526 C 240.882 139.458,239.311 139.402,235.472 139.402 C 231.632 139.402,230.061 139.458,231.981 139.526 M154.340 144.147 L 154.340 146.407 137.642 146.510 L 120.943 146.612 137.830 146.702 L 154.717 146.792 154.717 144.340 C 154.717 142.991,154.632 141.887,154.528 141.887 C 154.425 141.887,154.340 142.904,154.340 144.147 M180.000 144.317 C 180.000 145.032,180.130 145.696,180.290 145.795 C 180.449 145.894,180.517 145.309,180.439 144.497 C 180.265 142.672,180.000 142.564,180.000 144.317 M181.277 144.317 C 181.163 144.615,181.225 145.138,181.415 145.478 C 181.684 145.958,181.761 145.837,181.761 144.935 C 181.761 143.671,181.603 143.469,181.277 144.317 M182.264 144.204 C 182.264 144.358,182.434 144.589,182.642 144.717 C 182.849 144.845,183.019 144.736,183.019 144.475 C 183.019 144.126,183.130 144.112,183.439 144.420 C 183.945 144.926,183.515 145.778,182.934 145.420 C 182.684 145.265,182.634 145.343,182.805 145.620 C 183.016 145.961,183.215 145.967,183.602 145.646 C 183.886 145.411,184.295 145.328,184.512 145.461 C 185.012 145.771,185.028 145.179,184.533 144.684 C 184.287 144.438,184.416 144.292,184.910 144.254 C 185.469 144.212,185.660 144.432,185.660 145.118 C 185.660 145.624,185.816 146.038,186.005 146.038 C 186.197 146.038,186.227 145.577,186.072 145.000 C 185.806 144.006,182.264 143.266,182.264 144.204 M100.000 146.688 C 100.000 146.907,100.350 147.487,100.777 147.977 L 101.554 148.868 100.891 147.736 C 100.019 146.246,100.000 146.224,100.000 146.688 M111.273 148.552 C 110.988 148.897,110.245 149.490,109.623 149.871 C 109.000 150.252,108.705 150.564,108.968 150.565 C 109.442 150.566,112.480 147.954,112.027 147.935 C 111.897 147.929,111.557 148.207,111.273 148.552 M187.547 152.640 C 187.547 153.138,181.527 153.216,136.509 153.302 L 85.472 153.399 136.698 153.492 C 187.704 153.585,187.925 153.582,187.925 152.830 C 187.925 152.415,187.840 152.075,187.736 152.075 C 187.632 152.075,187.547 152.330,187.547 152.640 M198.621 153.302 C 198.525 153.458,223.800 153.544,254.789 153.494 C 285.778 153.444,302.047 153.359,290.943 153.306 C 237.450 153.047,198.779 153.046,198.621 153.302 M231.981 166.698 C 193.522 166.795,193.208 166.802,193.208 167.549 C 193.208 167.963,192.963 168.302,192.664 168.302 C 191.961 168.302,191.638 168.839,191.913 169.555 C 192.104 170.054,198.433 170.126,245.442 170.171 L 298.753 170.220 299.377 168.588 C 299.719 167.690,300.000 166.834,300.000 166.685 C 300.000 166.537,293.420 166.457,285.377 166.508 C 277.335 166.559,253.307 166.644,231.981 166.698 M183.019 168.491 L 183.019 170.189 186.551 170.189 L 190.084 170.189 189.904 171.132 C 189.762 171.872,189.875 172.069,190.428 172.046 C 190.825 172.029,190.927 171.933,190.660 171.826 C 189.964 171.545,190.087 170.648,190.849 170.449 C 191.478 170.284,191.478 170.274,190.849 170.232 C 190.468 170.207,190.189 169.886,190.189 169.475 C 190.189 169.028,189.836 168.672,189.245 168.524 C 188.636 168.371,188.302 168.023,188.302 167.540 C 188.302 166.866,188.042 166.792,185.660 166.792 L 183.019 166.792 183.019 168.491 M131.698 170.963 C 121.840 171.100,113.561 171.237,113.302 171.267 C 113.012 171.300,112.830 171.903,112.830 172.830 L 112.830 174.340 133.597 174.340 C 149.881 174.340,154.395 174.238,154.508 173.868 C 154.588 173.608,154.741 172.759,154.850 171.981 L 155.047 170.566 152.335 170.640 C 150.843 170.680,141.557 170.826,131.698 170.963 M201.981 177.641 L 183.019 177.743 183.019 179.437 L 183.019 181.132 205.045 181.132 L 227.071 181.132 227.305 179.717 C 227.711 177.258,227.837 177.351,224.245 177.449 C 222.429 177.499,212.410 177.586,201.981 177.641 M113.208 182.769 L 113.208 184.528 133.920 184.528 L 154.633 184.528 154.888 183.169 C 155.028 182.421,155.068 181.734,154.976 181.643 C 154.884 181.551,145.449 181.371,134.008 181.243 L 113.208 181.010 113.208 182.769 M113.208 193.396 L 113.208 195.094 133.962 195.094 L 154.717 195.094 154.717 193.646 L 154.717 192.197 142.769 191.948 C 136.197 191.810,126.857 191.698,122.014 191.698 L 113.208 191.698 113.208 193.396 M113.208 205.094 L 113.208 206.792 133.962 206.792 L 154.717 206.792 154.717 205.344 L 154.717 203.896 142.203 203.646 C 135.320 203.509,125.980 203.396,121.448 203.396 L 113.208 203.396 113.208 205.094 M100.549 217.830 C 100.692 218.297,100.888 219.861,100.986 221.305 C 101.170 224.027,101.252 224.320,101.772 224.096 C 102.207 223.909,101.130 216.981,100.667 216.981 C 100.450 216.981,100.400 217.342,100.549 217.830 M302.736 223.279 C 303.099 223.374,303.693 223.374,304.057 223.279 C 304.420 223.184,304.123 223.106,303.396 223.106 C 302.670 223.106,302.373 223.184,302.736 223.279 M309.547 230.943 C 309.547 232.085,309.618 232.552,309.704 231.981 C 309.791 231.410,309.791 230.476,309.704 229.906 C 309.618 229.335,309.547 229.802,309.547 230.943 M183.576 238.208 L 180.566 241.321 183.679 238.311 C 186.571 235.515,186.964 235.094,186.689 235.094 C 186.633 235.094,185.232 236.495,183.576 238.208 M64.885 248.962 L 63.585 250.377 65.000 249.077 C 66.317 247.866,66.589 247.547,66.300 247.547 C 66.237 247.547,65.601 248.184,64.885 248.962 M185.879 255.094 L 186.310 256.792 238.095 256.888 L 289.881 256.984 288.929 255.852 C 288.405 255.230,287.876 254.404,287.753 254.017 C 287.536 253.333,286.004 253.313,236.489 253.354 L 185.449 253.396 185.879 255.094 M296.625 253.839 C 296.130 254.186,294.786 255.035,293.639 255.725 L 291.554 256.981 295.160 256.981 L 298.765 256.981 299.383 255.365 C 299.722 254.476,300.000 253.627,300.000 253.478 C 300.000 252.951,297.513 253.217,296.625 253.839 M186.895 262.642 C 186.895 263.575,186.969 263.958,187.059 263.491 C 187.149 263.024,187.149 262.259,187.059 261.792 C 186.969 261.325,186.895 261.708,186.895 262.642 M190.660 264.809 L 187.170 264.934 187.170 266.429 L 187.170 267.925 207.123 267.925 L 227.075 267.925 227.311 266.745 C 227.441 266.097,227.547 265.333,227.547 265.047 C 227.547 264.552,202.424 264.390,190.660 264.809 M186.924 272.830 C 186.924 274.594,186.989 275.316,187.069 274.434 C 187.148 273.552,187.148 272.108,187.069 271.226 C 186.989 270.344,186.924 271.066,186.924 272.830 M219.434 275.306 C 203.660 276.202,189.863 276.946,188.774 276.958 L 186.792 276.981 186.809 279.151 C 186.818 280.344,187.056 283.358,187.337 285.849 C 187.619 288.340,187.787 290.442,187.712 290.521 C 187.507 290.735,175.763 290.558,175.403 290.335 C 175.233 290.230,175.094 289.305,175.094 288.280 C 175.094 287.254,174.925 286.415,174.717 286.415 C 174.509 286.415,174.340 287.167,174.340 288.086 C 174.340 289.044,174.106 289.991,173.792 290.305 C 173.490 290.607,173.313 290.923,173.397 291.007 C 174.283 291.893,170.295 310.514,166.661 322.453 L 162.756 335.283 165.057 335.502 C 167.729 335.756,169.057 336.131,169.057 336.631 C 169.057 337.200,175.561 336.568,176.192 335.938 C 176.591 335.538,177.001 332.184,177.761 323.106 L 178.790 310.816 177.323 301.729 C 176.516 296.731,175.766 292.259,175.657 291.792 C 175.458 290.945,175.468 290.943,180.370 290.943 L 185.283 290.943 185.284 293.113 C 185.291 305.586,183.940 315.166,179.432 334.605 C 179.249 335.397,179.329 335.426,181.098 335.217 C 184.156 334.855,186.018 335.706,183.585 336.354 C 183.170 336.465,188.009 336.477,194.340 336.381 C 242.242 335.657,256.422 335.402,256.560 335.263 C 256.747 335.077,255.193 281.299,254.869 276.698 L 254.649 273.585 251.381 273.631 C 249.584 273.656,235.208 274.409,219.434 275.306 M325.334 274.245 L 325.283 275.094 316.604 275.094 L 307.925 275.094 307.925 277.925 L 307.925 280.755 310.230 280.755 C 312.430 280.755,312.525 280.793,312.326 281.604 C 312.082 282.601,308.591 301.883,307.889 306.111 C 307.624 307.708,307.300 308.948,307.168 308.867 C 307.037 308.786,306.995 309.177,307.075 309.737 C 307.155 310.297,306.861 312.708,306.420 315.094 C 305.140 322.032,302.745 336.605,302.513 338.868 L 302.301 340.943 302.761 338.874 L 303.222 336.804 306.394 336.354 C 308.138 336.106,309.896 335.816,310.300 335.711 C 311.050 335.514,311.051 337.179,310.303 340.377 C 310.182 340.896,310.198 341.215,310.340 341.085 C 310.631 340.818,313.244 328.138,313.243 326.997 C 313.243 326.590,313.908 322.515,314.720 317.940 C 317.482 302.397,320.790 282.183,320.643 281.751 C 320.563 281.514,320.373 282.170,320.221 283.208 C 319.700 286.775,319.779 286.670,317.424 286.945 C 316.247 287.082,314.646 287.296,313.868 287.419 L 312.453 287.644 312.458 285.048 C 312.461 283.621,312.566 282.071,312.691 281.604 L 312.918 280.755 325.516 280.755 L 338.113 280.755 338.113 277.925 L 338.113 275.094 331.913 275.094 C 325.783 275.094,325.711 275.085,325.549 274.245 L 325.386 273.396 325.334 274.245 M136.226 277.514 C 136.226 277.705,140.347 279.630,140.706 279.608 C 141.020 279.588,139.055 278.530,137.479 277.872 C 136.790 277.584,136.226 277.423,136.226 277.514 M139.623 277.925 C 140.142 278.221,140.736 278.464,140.943 278.464 C 141.151 278.464,140.896 278.221,140.377 277.925 C 139.858 277.628,139.264 277.385,139.057 277.385 C 138.849 277.385,139.104 277.628,139.623 277.925 M162.642 277.805 C 162.642 278.373,158.666 278.868,154.105 278.868 C 152.870 278.868,152.525 278.995,152.678 279.392 C 152.788 279.681,152.017 281.633,150.964 283.732 C 149.460 286.729,149.182 287.547,149.665 287.547 C 150.183 287.547,150.203 287.642,149.787 288.142 C 149.415 288.590,149.403 288.804,149.737 289.011 C 150.033 289.193,149.621 289.834,148.503 290.931 C 147.580 291.837,146.911 292.716,147.015 292.885 C 147.119 293.054,147.011 293.554,146.774 293.996 C 146.363 294.764,146.806 323.284,147.372 332.547 L 147.574 335.849 145.108 335.849 C 142.893 335.849,142.642 335.926,142.642 336.604 C 142.642 337.318,142.893 337.358,147.301 337.358 C 150.718 337.358,152.267 337.512,153.112 337.933 C 153.746 338.250,155.640 338.614,157.321 338.744 L 160.377 338.980 160.377 338.008 C 160.377 337.400,160.624 336.972,161.038 336.864 C 161.542 336.732,161.500 336.681,160.861 336.648 C 159.791 336.592,160.102 335.582,161.258 335.356 C 162.030 335.206,162.032 335.194,161.303 335.146 C 160.544 335.095,160.563 334.873,162.352 322.736 L 164.173 310.377 163.926 299.942 C 163.690 289.945,163.709 289.500,164.387 289.326 C 164.776 289.226,164.383 289.124,163.513 289.100 C 161.392 289.042,161.412 289.135,162.233 282.963 C 162.630 279.984,162.884 277.476,162.798 277.390 C 162.712 277.303,162.642 277.490,162.642 277.805 M141.887 280.189 C 142.406 280.485,143.000 280.728,143.208 280.728 C 143.415 280.728,143.160 280.485,142.642 280.189 C 142.123 279.892,141.528 279.649,141.321 279.649 C 141.113 279.649,141.368 279.892,141.887 280.189 M146.014 282.323 C 146.446 282.725,147.013 282.911,147.380 282.770 C 148.114 282.488,147.175 281.782,145.940 281.686 C 145.338 281.640,145.344 281.699,146.014 282.323 M326.258 284.340 C 326.741 288.770,336.994 338.988,337.738 340.566 C 338.049 341.226,338.071 341.203,337.915 340.377 C 336.210 331.369,333.733 318.585,332.840 314.186 C 332.212 311.093,331.698 308.498,331.698 308.420 C 331.698 308.342,333.774 308.326,336.311 308.385 L 340.925 308.491 342.155 314.528 C 346.023 333.517,348.653 345.134,347.750 339.245 C 346.663 332.153,336.549 282.994,336.319 283.683 C 336.203 284.033,339.550 302.349,340.250 305.189 C 340.458 306.035,340.443 306.038,335.776 306.038 L 331.092 306.038 330.235 301.590 C 328.922 294.774,326.026 282.213,326.258 284.340 M141.698 284.151 C 141.376 284.774,141.198 285.283,141.301 285.283 C 141.405 285.283,141.753 284.774,142.075 284.151 C 142.397 283.528,142.576 283.019,142.472 283.019 C 142.368 283.019,142.020 283.528,141.698 284.151 M143.396 288.679 C 142.148 291.170,141.211 293.208,141.315 293.208 C 141.419 293.208,142.525 291.170,143.774 288.679 C 145.022 286.189,145.959 284.151,145.855 284.151 C 145.751 284.151,144.645 286.189,143.396 288.679 M133.040 286.003 C 132.531 286.827,133.399 288.038,133.983 287.319 C 134.283 286.950,134.328 286.768,134.083 286.915 C 133.447 287.296,133.003 286.399,133.631 286.001 C 133.973 285.785,133.997 285.670,133.702 285.666 C 133.454 285.663,133.157 285.815,133.040 286.003 M318.920 290.472 C 318.613 292.288,318.332 293.817,318.297 293.871 C 318.262 293.925,316.805 294.143,315.060 294.357 C 313.315 294.571,311.573 294.841,311.189 294.957 C 310.648 295.121,310.536 295.012,310.689 294.471 C 310.798 294.088,311.098 292.500,311.356 290.943 C 311.728 288.701,311.882 288.309,312.101 289.057 C 312.362 289.947,312.380 289.952,312.415 289.158 C 312.440 288.602,312.741 288.260,313.302 288.150 C 314.043 288.006,317.955 287.379,319.079 287.225 C 319.346 287.188,319.294 288.263,318.920 290.472 M137.621 290.759 C 137.276 291.483,137.071 292.075,137.166 292.075 C 137.424 292.075,138.570 289.765,138.397 289.592 C 138.315 289.510,137.966 290.036,137.621 290.759 M295.592 291.698 C 295.592 293.047,295.661 293.599,295.745 292.925 C 295.828 292.250,295.828 291.146,295.745 290.472 C 295.661 289.797,295.592 290.349,295.592 291.698 M86.133 291.509 C 86.137 292.340,86.214 292.635,86.305 292.165 C 86.395 291.696,86.391 291.017,86.297 290.656 C 86.203 290.295,86.129 290.679,86.133 291.509 M136.425 292.814 C 136.303 293.012,135.911 293.081,135.554 292.967 C 135.003 292.790,134.991 292.820,135.472 293.166 C 136.236 293.716,136.484 293.687,136.740 293.019 C 136.982 292.389,136.772 292.252,136.425 292.814 M317.625 297.736 L 317.147 300.566 314.706 300.826 C 313.363 300.969,311.650 301.180,310.898 301.295 L 309.533 301.503 309.852 299.714 C 310.027 298.730,310.267 297.373,310.385 296.698 C 310.748 294.629,311.686 295.142,311.768 297.453 L 311.838 299.434 311.976 297.466 C 312.112 295.523,312.131 295.496,313.510 295.268 C 314.278 295.142,315.585 294.915,316.415 294.763 C 318.262 294.428,318.207 294.292,317.625 297.736 M86.549 299.434 C 86.548 301.302,86.612 302.114,86.691 301.238 C 86.770 300.362,86.771 298.834,86.693 297.842 C 86.615 296.849,86.550 297.566,86.549 299.434 M316.767 302.547 C 315.996 306.941,316.241 306.583,313.853 306.797 L 311.698 306.990 311.632 305.476 L 311.566 303.962 311.422 305.566 C 311.308 306.826,311.127 307.170,310.575 307.170 C 310.189 307.170,309.579 307.283,309.219 307.421 C 308.630 307.647,308.592 307.470,308.832 305.628 C 309.315 301.926,309.337 301.889,311.079 301.865 C 311.938 301.853,313.321 301.703,314.151 301.531 C 316.984 300.945,317.044 300.969,316.767 302.547 M117.454 303.962 C 117.458 304.792,117.535 305.088,117.625 304.618 C 117.716 304.149,117.712 303.470,117.618 303.109 C 117.523 302.748,117.449 303.132,117.454 303.962 M315.689 308.585 C 315.048 312.311,315.359 311.987,312.146 312.284 C 310.551 312.431,308.863 312.695,308.396 312.870 C 307.393 313.247,307.377 313.134,308.000 310.117 L 308.453 307.925 309.855 307.925 C 310.627 307.925,311.344 308.137,311.448 308.396 C 311.566 308.687,311.650 308.624,311.668 308.231 C 311.697 307.621,312.413 307.408,315.042 307.230 C 315.870 307.174,315.916 307.270,315.689 308.585 M314.981 312.960 C 314.874 313.238,314.666 314.427,314.519 315.601 L 314.253 317.736 312.787 317.736 L 311.321 317.736 311.257 315.566 L 311.194 313.396 310.943 315.660 C 310.806 316.906,310.662 317.755,310.624 317.547 C 310.582 317.320,310.444 317.337,310.277 317.589 C 309.737 318.406,306.315 318.653,306.548 317.858 C 306.659 317.480,306.862 316.369,307.001 315.390 C 307.239 313.700,307.311 313.611,308.437 313.611 C 309.089 313.611,310.642 313.368,311.887 313.070 C 314.840 312.366,315.214 312.352,314.981 312.960 M105.404 318.868 C 105.404 320.217,105.472 320.769,105.556 320.094 C 105.640 319.420,105.640 318.316,105.556 317.642 C 105.472 316.967,105.404 317.519,105.404 318.868 M118.962 316.874 C 119.533 316.961,120.467 316.961,121.038 316.874 C 121.608 316.788,121.142 316.717,120.000 316.717 C 118.858 316.717,118.392 316.788,118.962 316.874 M313.962 318.554 C 313.962 321.392,313.084 323.774,312.037 323.774 C 311.417 323.774,310.941 323.569,310.938 323.302 C 310.934 322.974,310.848 322.957,310.655 323.247 C 310.502 323.477,309.698 323.786,308.868 323.934 C 308.038 324.081,306.976 324.294,306.509 324.406 C 305.794 324.578,305.660 324.455,305.660 323.626 C 305.660 323.084,305.788 322.642,305.943 322.642 C 306.194 322.642,306.274 322.116,306.421 319.511 C 306.453 318.953,306.773 318.841,308.230 318.879 C 309.203 318.905,310.509 318.758,311.132 318.552 C 312.710 318.031,313.962 318.032,313.962 318.554 M313.042 324.623 C 312.965 324.882,312.700 326.121,312.453 327.375 L 312.005 329.656 308.370 330.088 C 304.041 330.603,304.393 330.839,304.926 327.780 C 305.337 325.418,306.048 324.528,306.543 325.755 C 306.662 326.051,306.744 325.994,306.763 325.602 C 306.796 324.897,310.557 324.397,310.578 325.094 C 310.584 325.302,310.762 325.175,310.974 324.811 C 311.414 324.055,313.263 323.886,313.042 324.623 M104.993 327.547 C 104.993 328.274,105.071 328.571,105.166 328.208 C 105.261 327.844,105.261 327.250,105.166 326.887 C 105.071 326.524,104.993 326.821,104.993 327.547 M385.419 332.453 C 385.419 334.425,385.483 335.231,385.560 334.245 C 385.638 333.259,385.638 331.646,385.560 330.660 C 385.483 329.675,385.419 330.481,385.419 332.453 M311.570 332.594 L 311.210 335.000 308.489 335.247 C 306.993 335.382,305.218 335.651,304.545 335.844 C 303.402 336.172,303.336 336.141,303.530 335.362 C 303.644 334.903,303.852 333.807,303.992 332.925 C 304.227 331.447,304.340 331.318,305.426 331.280 C 306.342 331.248,310.440 330.573,311.719 330.243 C 311.835 330.213,311.767 331.271,311.570 332.594 M368.787 331.887 C 368.790 332.925,368.863 333.304,368.950 332.731 C 369.037 332.157,369.034 331.308,368.945 330.844 C 368.855 330.380,368.784 330.849,368.787 331.887 M131.056 333.962 C 131.056 335.104,131.127 335.571,131.214 335.000 C 131.300 334.429,131.300 333.495,131.214 332.925 C 131.127 332.354,131.056 332.821,131.056 333.962 M75.566 334.977 C 75.929 335.072,76.524 335.072,76.887 334.977 C 77.250 334.882,76.953 334.805,76.226 334.805 C 75.500 334.805,75.203 334.882,75.566 334.977 M48.666 336.622 C 44.103 336.951,41.392 337.568,41.608 338.229 C 42.501 340.950,83.396 340.886,83.396 338.163 C 83.396 337.550,82.483 337.439,80.178 337.773 C 74.738 338.562,75.094 338.565,75.094 337.740 C 75.094 337.323,75.307 336.960,75.566 336.934 C 75.825 336.908,75.274 336.751,74.340 336.585 C 72.227 336.209,54.038 336.235,48.666 336.622 M95.275 373.620 C 86.439 374.219,83.633 375.436,88.491 376.563 C 91.700 377.307,120.877 377.391,124.790 376.668 C 129.022 375.885,129.598 374.454,125.433 375.071 C 119.862 375.896,119.623 375.897,119.623 375.087 C 119.623 374.676,119.835 374.334,120.094 374.328 C 120.364 374.322,120.291 374.156,119.923 373.942 C 119.019 373.415,101.648 373.188,95.275 373.620 " stroke="none" fill="#9387bc" fill-rule="evenodd"></path></g></svg>